# xmcd CD database file
#
# Track frame offsets:
#	150
#	2117
#	25875
#	40882
#	63920
#	87305
#	107025
#	122122
#	135015
#	163500
#	175660
#	197127
#	209835
#
# Disc length: 3050 seconds
#
# Revision: 1
# Processed by: cddbd v1.5.2PL0 Copyright (c) Steve Scherf et al.
# Submitted via: CDex 1.51
#
DISCID=aa0be80d
DTITLE=COCOBAT - STRUGGLE OF APHRODITE
DYEAR=1993
DGENRE=ハードコア
TTITLE0=Take Care Of Your Ass
TTITLE1=Struggle
TTITLE2=I Feel Nothing
TTITLE3=Leeway
TTITLE4=Skimen
TTITLE5=Bob
TTITLE6=Where ?
TTITLE7=Lie
TTITLE8=I Am Me･Not Myself
TTITLE9=In The Time
TTITLE10=Trust Me
TTITLE11=Thing
TTITLE12=Can't Wake Up (Rad Version) *
EXTD=YEAR: 1993
EXTT0=
EXTT1=
EXTT2=
EXTT3=
EXTT4=
EXTT5=
EXTT6=
EXTT7=
EXTT8=
EXTT9=
EXTT10=
EXTT11=
EXTT12=
PLAYORDER=
